# xmcd
#
# Track frame offsets:
#	150
#	12821
#	26205
#	38402
#	53284
#	67176
#	78751
#	88665
#	101804
#	114888
#	126293
#	138691
#	153866
#	168053
#	180577
#	194124
#	205591
#	219921
#	232024
#	243856
#	252554
#	264768
#	277742
#	291700
#	304443
#
# Disc length: 4204 seconds
# Revision: 3
# Processed by: cddbd v1.5.2PL0 Copyright (c) Steve Scherf et al.
# Submitted via: dBpowerAMP V12.0
#
DISCID=5a106a19
DTITLE=Various Artist - The R&b Hits Of 1952
DYEAR=1952
DGENRE=Pop
TTITLE0=B.B. King - Boogie Woogie Woman
TTITLE1=Johnny Ace - My Song
TTITLE2=Marie Adams - I'm Gonny Play The Honky Tonks
TTITLE3=Five Keys, The - How Long
TTITLE4=T-Bone Walker - Street Walking Woman
TTITLE5=Lewis, Pete "Guitar" - Louisiana Hop
TTITLE6=Lester Williams - I Can't Lose With The Stuff I Use
TTITLE7=Little Walter - Mean Old World
TTITLE8=Little Esther - Ring-A-Ding-Doo
TTITLE9=Lloyd Price - Lawdy Miss Clawdy
TTITLE10=Ravens, The - Rock Me All Night Long
TTITLE11=Muddy Waters - Standing Around Crying
TTITLE12=Rosco Gordon - No More Doggin'
TTITLE13=Lowell Fulson - Guitar Shuffle
TTITLE14=Roy Brown - Good Rockin' Man
TTITLE15=Hooker, John Lee - Key To The Highway
TTITLE16=Walker, Mel/Otis, Johnny Orchestra - Sunset To Down
TTITLE17=Big Maybelle - Gabbin' Blues
TTITLE18=Ligtnin' Hopkins - Gone With The Wind
TTITLE19=Ward, Billy &Dominoes, The - I'd Be Satisfied
TTITLE20=Sonny Thompson - Mellow Blues
TTITLE21=Ruth Brown - Daddy Daddy
TTITLE22=Eddie Boyd - Cool Kind Treatment
TTITLE23=Williamson, Sonny Boy - Nine Below Zero
TTITLE24=Clovers, The - Hey, Miss Fannie
EXTD=
EXTT0=
EXTT1=
EXTT2=
EXTT3=
EXTT4=
EXTT5=
EXTT6=
EXTT7=
EXTT8=
EXTT9=
EXTT10=
EXTT11=
EXTT12=
EXTT13=
EXTT14=
EXTT15=
EXTT16=
EXTT17=
EXTT18=
EXTT19=
EXTT20=
EXTT21=
EXTT22=
EXTT23=
EXTT24=
PLAYORDER=
